<?xml version="1.0" encoding="utf-8"?>
<!-- Generator: Adobe Illustrator 26.3.1, SVG Export Plug-In . SVG Version: 6.00 Build 0)  -->
<svg version="1.1" id="Capa_1" xmlns="http://www.w3.org/2000/svg" xmlns:xlink="http://www.w3.org/1999/xlink" x="0px" y="0px"
	 viewBox="0 0 80 80" style="enable-background:new 0 0 80 80;" xml:space="preserve">
<style type="text/css">
	.st0{fill:#FFFFFF;}
</style>
<g>
	<path class="st0" d="M69.17,58.34h-5.92c0.2-0.43,0.32-0.9,0.32-1.4V40.86c0-1.81-1.48-3.29-3.29-3.29H59.6v-1.29
		c0-5.66-4.58-10.26-10.22-10.32c-0.01,0-0.02-0.01-0.03-0.01c-0.01,0-0.01,0-0.02,0c-0.02,0-0.05,0-0.07,0h-2.29
		c0-0.06,0.02-0.12,0.02-0.18V22.2c0,0,0-0.01,0-0.01c1.03-1.45,1.62-3.18,1.62-4.98v-5.66h1.57c0.52,0,0.94-0.42,0.94-0.94
		s-0.42-0.94-0.94-0.94h-0.69c-0.83-4.18-4.3-7.32-8.55-7.73l0-0.98c0-0.52-0.42-0.94-0.94-0.94s-0.94,0.42-0.94,0.94v0.98
		c-4.24,0.41-7.72,3.55-8.55,7.73h-0.69c-0.52,0-0.94,0.42-0.94,0.94s0.42,0.94,0.94,0.94h1.57v5.66c0,1.79,0.59,3.51,1.63,4.98
		c0,0,0,0.01,0,0.01v3.58c0,0.06,0.02,0.12,0.02,0.18h-2.31c-0.02,0-0.03,0-0.05,0c0,0-0.01,0-0.01,0c-0.01,0-0.01,0-0.02,0
		c-5.65,0.05-10.23,4.66-10.23,10.33v1.29h-5.56c-1.81,0-3.29,1.48-3.29,3.29v16.08c0,0.5,0.12,0.97,0.32,1.4h-1.03
		C4.77,58.34,0,63.27,0,69.17C0,75.14,4.86,80,10.84,80h58.33C74.97,80,80,75.35,80,69.17C80,63.2,75.14,58.34,69.17,58.34
		L69.17,58.34z M61.68,40.86v16.08c0,0.77-0.63,1.4-1.4,1.4H44.2c-0.77,0-1.4-0.63-1.4-1.4V40.86c0-0.77,0.63-1.4,1.4-1.4h4.39v7.72
		c0,0.37,0.22,0.71,0.55,0.86c0.34,0.15,0.73,0.1,1.01-0.15l2.09-1.81l2.09,1.81c0.18,0.15,0.4,0.23,0.62,0.23
		c0.13,0,0.27-0.03,0.39-0.09c0.34-0.15,0.55-0.49,0.55-0.86v-7.72h4.39C61.05,39.46,61.68,40.09,61.68,40.86L61.68,40.86z
		 M31.6,37.64v-9.8h1.72c0.85,2.8,3.5,4.92,6.67,4.92c3.11,0,5.82-2.14,6.67-4.92h1.73v9.73H44.2c-1.81,0-3.29,1.48-3.29,3.29v16.08
		c0,0.5,0.12,0.97,0.32,1.4h-7.34c0.2-0.43,0.32-0.9,0.32-1.4l0-16.08C34.21,39.28,33.09,37.96,31.6,37.64L31.6,37.64z M39.99,25.82
		c1.69,0,3.55-0.53,5.1-1.67c-0.02,1.44,0.05,1.83-0.09,2.58c-0.44,2.4-2.55,4.14-5,4.14c-2.86,0-5.1-2.33-5.1-5.1v-1.63
		C36.38,25.24,38.23,25.82,39.99,25.82L39.99,25.82z M50.48,39.46H54v5.65l-1.15-0.99c-0.18-0.15-0.4-0.23-0.62-0.23
		c-0.22,0-0.44,0.08-0.62,0.23l-1.14,0.99L50.48,39.46z M57.71,36.29v1.29h-7.42v-9.66C54.47,28.43,57.71,31.98,57.71,36.29z
		 M39.05,3.85v2.13c0,0.52,0.42,0.94,0.94,0.94c0.52,0,0.94-0.42,0.94-0.94V3.85c3.2,0.39,5.84,2.69,6.61,5.81H32.44
		C33.21,6.54,35.85,4.24,39.05,3.85L39.05,3.85z M46.71,11.55v5.66c0,3.7-2.98,6.72-6.72,6.72c-3.74,0-6.72-3.04-6.72-6.72v-5.66
		H46.71z M22.29,36.29c0-4.31,3.25-7.87,7.42-8.37v9.66h-7.42V36.29z M21.12,39.46h3.53v5.65l-1.14-0.99
		c-0.35-0.31-0.88-0.31-1.24,0l-1.15,0.99L21.12,39.46z M13.44,56.94V40.86c0-0.77,0.63-1.4,1.4-1.4h4.39v7.72
		c0,0.37,0.22,0.71,0.55,0.86c0.13,0.06,0.26,0.09,0.39,0.09c0.22,0,0.44-0.08,0.62-0.23l2.09-1.81l2.09,1.81
		c0.28,0.24,0.68,0.3,1.01,0.15c0.34-0.15,0.55-0.49,0.55-0.86v-7.72h4.39c0.77,0,1.4,0.63,1.4,1.4v16.08c0,0.77-0.63,1.4-1.4,1.4
		H14.84C14.06,58.34,13.44,57.71,13.44,56.94L13.44,56.94z M69.17,78.11H10.84c-4.94,0-8.95-4.01-8.95-8.94
		c0-4.87,3.94-8.94,8.95-8.94h58.33c4.93,0,8.94,4.01,8.94,8.94C78.11,74.28,73.95,78.11,69.17,78.11z"/>
	<path class="st0" d="M12.67,63.53c-3.11,0-5.64,2.53-5.64,5.63c0,3.11,2.53,5.64,5.64,5.64c3.11,0,5.63-2.53,5.63-5.64
		C18.3,66.06,15.77,63.53,12.67,63.53z M12.67,72.92c-2.07,0-3.75-1.68-3.75-3.75c0-2.06,1.68-3.74,3.75-3.74
		c2.06,0,3.74,1.68,3.74,3.74C16.41,71.23,14.73,72.92,12.67,72.92z"/>
	<path class="st0" d="M30.88,63.53c-3.11,0-5.64,2.53-5.64,5.63c0,3.11,2.53,5.64,5.64,5.64c3.11,0,5.63-2.53,5.63-5.64
		C36.51,66.06,33.99,63.53,30.88,63.53z M30.88,72.92c-2.07,0-3.75-1.68-3.75-3.75c0-2.06,1.68-3.74,3.75-3.74
		c2.06,0,3.74,1.68,3.74,3.74C34.62,71.23,32.94,72.92,30.88,72.92z"/>
	<path class="st0" d="M49.09,63.53c-3.11,0-5.64,2.53-5.64,5.63c0,3.11,2.53,5.64,5.64,5.64c3.11,0,5.63-2.53,5.63-5.64
		C54.73,66.06,52.2,63.53,49.09,63.53z M49.09,72.92c-2.07,0-3.75-1.68-3.75-3.75c0-2.06,1.68-3.74,3.75-3.74
		c2.06,0,3.74,1.68,3.74,3.74C52.84,71.23,51.16,72.92,49.09,72.92z"/>
	<path class="st0" d="M67.36,63.53c-3.11,0-5.64,2.53-5.64,5.63c0,3.11,2.53,5.64,5.64,5.64c3.11,0,5.63-2.53,5.63-5.64
		C72.99,66.06,70.46,63.53,67.36,63.53z M67.36,72.92c-2.07,0-3.75-1.68-3.75-3.75c0-2.06,1.68-3.74,3.75-3.74
		c2.06,0,3.74,1.68,3.74,3.74C71.1,71.23,69.42,72.92,67.36,72.92z"/>
</g>
</svg>
