<?xml version="1.0" encoding="utf-8"?>
<!-- Generator: Adobe Illustrator 26.3.1, SVG Export Plug-In . SVG Version: 6.00 Build 0)  -->
<svg version="1.1" id="Capa_1" xmlns="http://www.w3.org/2000/svg" xmlns:xlink="http://www.w3.org/1999/xlink" x="0px" y="0px"
	 viewBox="0 0 90 80" style="enable-background:new 0 0 90 80;" xml:space="preserve">
<style type="text/css">
	.st0{fill:#FFFFFF;}
</style>
<g>
	<path class="st0" d="M49.71,44.7c-0.58,0.03-1.1-0.32-1.29-0.87c-3.19-8.68-9.03-16.14-16.7-21.31c-0.35-0.14-0.61-0.43-0.73-0.78
		c-0.12-0.35-0.08-0.74,0.11-1.07c0.19-0.32,0.51-0.55,0.88-0.62c0.37-0.07,0.75,0.02,1.04,0.26c8.24,5.44,14.51,13.39,17.86,22.68
		c0.24,0.65-0.06,1.37-0.7,1.64C50.03,44.68,49.87,44.7,49.71,44.7L49.71,44.7z"/>
	<g>
		<path class="st0" d="M67.22,72.81c-0.61,0.02-1.15-0.4-1.29-1l-2.15-8.78v0C62.6,58.15,63.41,53,66.01,48.71l1-1.66
			c0.96-1.57,1.64-3.3,2.02-5.1l0.88-4.16v0c0.37-1.74,1.32-3.31,2.7-4.44c1.38-1.12,3.11-1.74,4.89-1.74
			c0.34-3.22-0.36-6.47-2.01-9.27l-5.18-8.82c-0.52-0.89-0.7-1.94-0.49-2.96c0.21-1.01,0.78-1.91,1.61-2.52
			c0.83-0.61,1.86-0.9,2.89-0.8c1.21,0.1,2.31,0.72,3.03,1.7l6.36,9.06c3.93,5.51,5.76,12.24,5.18,18.98
			c-0.75,8.49-2.59,14.89-5.58,19.03v0c-1.82,2.65-2.46,5.92-1.79,9.06l0.66,2.72c0.09,0.34,0.05,0.7-0.13,1
			c-0.18,0.3-0.47,0.52-0.81,0.6l-13.72,3.37L67.22,72.81z M77.06,34.24L77.06,34.24c-1.1,0.1-2.14,0.56-2.97,1.3
			c-0.82,0.74-1.39,1.72-1.62,2.81l-0.88,4.16c-0.45,2.09-1.24,4.09-2.36,5.92l-0.94,1.64c-2.25,3.71-2.93,8.16-1.9,12.37l1.84,7.52
			l11.13-2.74l-0.38-1.53c-0.82-3.87,0-7.91,2.25-11.16c2.59-3.69,4.41-9.84,5.18-17.75c0.54-6.12-1.12-12.23-4.67-17.24l-6.37-9.06
			c-0.26-0.38-0.68-0.63-1.14-0.67c-0.47-0.05-0.94,0.1-1.29,0.43c-0.53,0.51-0.65,1.33-0.27,1.97l5.18,8.82
			c2.11,3.65,2.86,7.94,2.1,12.09c0.01,0.06,0.01,0.12,0,0.18L77.1,46.4c-0.19,0.65-0.85,1.04-1.51,0.9
			c-0.66-0.14-1.1-0.77-1.01-1.45L77.06,34.24z"/>
		<path class="st0" d="M22.77,72.81h-0.3l-13.72-3.4c-0.69-0.17-1.12-0.87-0.94-1.57l0.67-2.78v0c0.67-3.14,0.02-6.42-1.8-9.06
			C3.73,51.85,1.86,45.46,1.1,36.97v0c-0.58-6.73,1.24-13.44,5.14-18.95l6.39-9.06c0.7-0.99,1.81-1.63,3.02-1.75
			c1.21-0.12,2.42,0.3,3.3,1.14c0.7,0.65,1.15,1.52,1.28,2.46c0.13,0.94-0.07,1.9-0.56,2.72l-5.18,8.82
			c-1.64,2.79-2.35,6.04-2.01,9.27c1.78,0,3.51,0.61,4.89,1.74c1.38,1.12,2.34,2.69,2.7,4.44l0.88,4.16
			c0.38,1.81,1.07,3.54,2.03,5.11L24,48.71c2.6,4.3,3.4,9.45,2.23,14.33l-2.15,8.78v0C23.94,72.42,23.39,72.83,22.77,72.81
			L22.77,72.81z M10.63,67.21l11.2,2.74l1.84-7.52c1.03-4.21,0.34-8.66-1.9-12.37l-1.01-1.64c-1.11-1.83-1.91-3.83-2.36-5.92
			l-0.88-4.16c-0.23-1.08-0.79-2.07-1.62-2.81c-0.82-0.74-1.86-1.19-2.97-1.3l2.49,11.65c0.15,0.72-0.31,1.42-1.02,1.57
			c-0.71,0.15-1.42-0.31-1.57-1.02l-2.78-13.15c-0.01-0.06-0.01-0.12,0-0.18c-0.73-4.15,0.04-8.42,2.17-12.05l5.18-8.82
			c0.38-0.64,0.27-1.46-0.27-1.98c-0.35-0.32-0.82-0.48-1.29-0.43c-0.46,0.04-0.88,0.29-1.14,0.67l-6.37,9.06
			c-3.54,5.01-5.19,11.11-4.65,17.22c0.7,7.91,2.49,14.06,5.07,17.75c2.23,3.24,3.04,7.26,2.23,11.11L10.63,67.21z"/>
		<path class="st0" d="M44.84,45.27c-5.75,0.05-11.21-2.52-14.83-6.98c-0.33-0.45-0.33-1.06,0-1.51c0.03-0.05,0.07-0.1,0.12-0.14
			c-2.46-2.33-4.21-5.32-5.03-8.61c-0.12-0.48,0.05-0.98,0.43-1.29c0.36-0.3,0.85-0.39,1.29-0.22l0.53,0.18h0
			c-2.98-4.89-3.94-10.75-2.67-16.34c0.13-0.47,0.51-0.83,0.98-0.93c0.48-0.11,0.98,0.07,1.29,0.45c3.34,3.38,7.79,5.45,12.53,5.82
			c4.84,0.51,9.68,4.43,12.32,9.99h0c1.47,2.89,2.15,6.11,1.97,9.34c-0.18,3.23-1.2,6.36-2.97,9.08c-0.18,0.28-0.46,0.48-0.79,0.56
			C48.32,45.06,46.59,45.26,44.84,45.27L44.84,45.27z M34.18,38.9L34.18,38.9c4.11,3.35,9.55,4.6,14.71,3.37
			c2.83-4.72,3.03-10.55,0.54-15.46c-2.23-4.7-6.34-8.13-10.25-8.54c-4.49-0.42-8.76-2.14-12.3-4.94
			c-0.47,5.13,1.09,10.25,4.36,14.24c0.32,0.38,0.39,0.91,0.19,1.36c-0.2,0.45-0.64,0.74-1.13,0.76c-0.64,0.02-1.27-0.03-1.9-0.13
			c0.94,2.24,2.87,5.59,6.32,6.69c0.52,0.17,0.88,0.65,0.89,1.19c0.04,0.57-0.3,1.09-0.83,1.29c-0.19,0.07-0.38,0.13-0.57,0.17
			L34.18,38.9z"/>
		<path class="st0" d="M53.01,45.08c-1.21,0-2.42-0.14-3.6-0.41c-0.71-0.16-1.16-0.87-1-1.59c0.16-0.72,0.87-1.16,1.59-1
			c3.25,0.86,6.72,0.23,9.46-1.71c-0.39-0.29-0.58-0.77-0.5-1.25c0.08-0.48,0.42-0.87,0.87-1.02c1.7-0.68,3.05-2.01,3.77-3.69
			c-0.22,0.01-0.43,0.01-0.65,0c-0.49-0.02-0.93-0.32-1.13-0.77c-0.2-0.45-0.13-0.98,0.19-1.36c2.04-2.43,3.09-5.53,2.95-8.7
			c-2.37,1.69-5.14,2.73-8.04,3c-1.77,0.29-3.38,1.18-4.57,2.52c-0.49,0.52-1.31,0.54-1.83,0.05c-0.52-0.49-0.54-1.31-0.05-1.83
			c1.62-1.77,3.8-2.91,6.17-3.24c3.14-0.25,6.07-1.63,8.27-3.88c0.31-0.37,0.8-0.53,1.27-0.43c0.47,0.1,0.84,0.46,0.97,0.92
			c0.83,3.63,0.32,7.44-1.45,10.72c0.26,0.03,0.51,0.14,0.71,0.31c0.38,0.32,0.54,0.82,0.43,1.29c-0.55,2.21-1.69,4.23-3.3,5.85
			c0.19,0.42,0.14,0.92-0.13,1.29C60.87,43.31,57.04,45.11,53.01,45.08L53.01,45.08z"/>
		<path class="st0" d="M51.85,40.02c-0.23,0-0.45-0.07-0.65-0.18c-0.61-0.36-0.82-1.14-0.47-1.76c2.49-4.32,5.95-8,10.11-10.76
			c0.61-0.37,1.4-0.17,1.77,0.44c0.37,0.61,0.17,1.4-0.44,1.77c-3.77,2.54-6.91,5.9-9.2,9.83C52.74,39.77,52.31,40.02,51.85,40.02
			L51.85,40.02z"/>
	</g>
</g>
</svg>
