<?xml version="1.0" encoding="utf-8"?>
<!-- Generator: Adobe Illustrator 26.3.1, SVG Export Plug-In . SVG Version: 6.00 Build 0)  -->
<svg version="1.1" id="Capa_1" xmlns="http://www.w3.org/2000/svg" xmlns:xlink="http://www.w3.org/1999/xlink" x="0px" y="0px"
	 viewBox="0 0 80 80" style="enable-background:new 0 0 80 80;" xml:space="preserve">
<style type="text/css">
	.st0{fill:#FFFFFF;}
</style>
<g>
	<path class="st0" d="M40.04,17.17c-7.11,0-13.81,3.3-18.14,8.94c-4.33,5.64-5.79,12.97-3.95,19.83c1.84,6.86,6.76,12.48,13.33,15.2
		c6.57,2.72,14.02,2.23,20.18-1.32c6.15-3.55,10.3-9.77,11.23-16.81c0.92-7.05-1.48-14.12-6.51-19.14
		C51.91,19.56,46.1,17.15,40.04,17.17L40.04,17.17z M41.28,19.8c4.48,0.26,8.73,2.02,12.09,4.99l-8.17,8.16
		c-1.15-0.84-2.5-1.39-3.92-1.6V19.8z M38.7,19.8v11.58c-1.41,0.21-2.75,0.77-3.89,1.62l-8.18-8.18v0
		c3.35-2.98,7.61-4.75,12.09-5.03L38.7,19.8z M24.82,26.63l8.18,8.2c-0.85,1.16-1.39,2.51-1.6,3.93H19.8
		C20.07,34.26,21.84,29.99,24.82,26.63z M19.8,41.25h11.6c0.21,1.4,0.76,2.73,1.6,3.88l-8.18,8.25
		C21.83,50.01,20.07,45.74,19.8,41.25z M38.71,60.21c-4.47-0.27-8.72-2.03-12.08-4.99l8.18-8.18h0c1.15,0.85,2.48,1.41,3.89,1.62
		L38.71,60.21z M33.9,40c0-1.63,0.65-3.19,1.8-4.34c1.15-1.15,2.71-1.8,4.34-1.8s3.19,0.65,4.34,1.8c1.15,1.15,1.8,2.71,1.8,4.34
		s-0.65,3.19-1.8,4.34c-1.15,1.15-2.71,1.8-4.34,1.8c-1.63,0-3.19-0.65-4.34-1.8C34.55,43.19,33.9,41.63,33.9,40L33.9,40z
		 M41.28,60.21V48.64c1.42-0.21,2.76-0.76,3.92-1.61l8.17,8.16v0C50.02,58.17,45.76,59.93,41.28,60.21L41.28,60.21z M55.21,53.37
		l-8.17-8.16h0c0.87-1.17,1.43-2.53,1.64-3.97h11.55c-0.25,4.49-2.02,8.76-5,12.13H55.21z M48.67,38.75
		c-0.21-1.42-0.77-2.77-1.62-3.93l8.17-8.16c2.97,3.35,4.73,7.61,4.99,12.09H48.67z"/>
	<path class="st0" d="M78.78,38.75h-8.81c-0.28-7.06-3.07-13.8-7.86-19l6.24-6.24c0.5-0.5,0.5-1.32,0-1.82c-0.5-0.5-1.32-0.5-1.82,0
		l-6.24,6.24c-5.2-4.8-11.94-7.59-19.01-7.87V1.33c0-0.71-0.58-1.29-1.29-1.29c-0.71,0-1.29,0.58-1.29,1.29v8.73
		c-7.06,0.28-13.79,3.07-18.99,7.87l-6.17-6.24h0c-0.51-0.5-1.32-0.5-1.83,0.01c-0.5,0.51-0.5,1.32,0.01,1.83l6.24,6.24
		c-4.82,5.18-7.63,11.92-7.93,18.99H1.29C0.58,38.75,0,39.33,0,40.04c0,0.71,0.58,1.29,1.29,1.29h8.73
		c0.29,7.06,3.08,13.8,7.88,18.99l-6.24,6.24c-0.25,0.24-0.4,0.57-0.4,0.91c0,0.34,0.14,0.67,0.4,0.91c0.51,0.5,1.32,0.5,1.83,0
		v-0.09l6.11-6.11c5.23,4.79,12.01,7.54,19.1,7.76v8.73c0,0.71,0.58,1.29,1.29,1.29c0.71,0,1.29-0.58,1.29-1.29v-8.73
		c7.07-0.29,13.8-3.08,19-7.87l6.24,6.24c0.5,0.51,1.32,0.51,1.83,0.01c0.51-0.5,0.51-1.32,0.01-1.83l-6.24-6.24
		c4.79-5.2,7.57-11.94,7.85-19h8.73c0.71,0,1.29-0.58,1.29-1.29c0-0.71-0.58-1.29-1.29-1.29L78.78,38.75z M59.41,59.39
		c-6.04,6.02-14.54,8.89-23,7.76c-8.46-1.13-15.91-6.13-20.16-13.52c-4.25-7.4-4.82-16.35-1.54-24.23
		c3.28-7.88,10.04-13.78,18.28-15.97c8.25-2.19,17.04-0.43,23.8,4.78S67.5,31.47,67.48,40C67.49,47.28,64.58,54.26,59.41,59.39
		L59.41,59.39z"/>
</g>
</svg>
