<?xml version="1.0" encoding="utf-8"?>
<!-- Generator: Adobe Illustrator 26.3.1, SVG Export Plug-In . SVG Version: 6.00 Build 0)  -->
<svg version="1.1" id="Capa_1" xmlns="http://www.w3.org/2000/svg" xmlns:xlink="http://www.w3.org/1999/xlink" x="0px" y="0px"
	 viewBox="0 0 610 250" style="enable-background:new 0 0 610 250;" xml:space="preserve">
<style type="text/css">
	.st0{fill:#FFFFFF;}
</style>
<g>
	<g>
		<g>
			<g>
				<path class="st0" d="M126,40.76c11.28,3.9,21.93,7.59,43.77,7.59c8.6,0,15.46-0.57,21.31-1.5c3.26-0.52,4.51-4.6,2.03-6.79
					c-19.96-17.6-46.17-28.29-74.87-28.29c-19.2,0-37.28,4.78-53.12,13.21c-3.69,1.96-2.19,7.58,1.98,7.38
					c2.83-0.13,5.83-0.21,9.04-0.21C101.11,32.15,113.76,36.53,126,40.76z"/>
				<path class="st0" d="M169.76,167.56c-24.97,0-37.62-4.38-49.86-8.61c-11.28-3.9-21.93-7.59-43.77-7.59s-32.49,3.69-43.77,7.59
					c-4.92,1.7-9.91,3.43-15.74,4.89c-2.34,0.58-3.63,3.1-2.69,5.32c2.27,5.35,4.94,10.49,7.97,15.39c3.1,5,7.99,8.63,13.64,10.29
					c8.49,2.5,18.38,4.38,33.98,4.38c21.84,0,32.49-3.69,43.77-7.59c12.24-4.23,24.89-8.61,49.86-8.61
					c16.61,0,27.77,1.94,36.98,4.48c6.49,1.79,13.42-0.97,16.73-6.83c3.01-5.33,5.61-10.92,7.74-16.74c1.12-3.07-1.82-6.06-4.91-5
					l-0.07,0.03C207.38,163.18,194.73,167.56,169.76,167.56z"/>
				<path class="st0" d="M163.15,101.07c-21.84,0-32.49,3.69-43.77,7.59c-12.23,4.23-24.89,8.61-49.86,8.61s-37.62-4.38-49.86-8.61
					c-2.82-0.98-5.6-1.94-8.52-2.83c-2.32-0.71-4.69,0.86-5.03,3.25C5.38,114.28,5,119.6,5,125c0,6.07,0.48,12.02,1.4,17.83
					c0.35,2.22,2.59,3.66,4.78,3.13c5.54-1.32,10.26-2.95,15.1-4.63c12.23-4.23,24.89-8.61,49.86-8.61s37.62,4.38,49.86,8.61
					c11.28,3.9,21.93,7.59,43.77,7.59c21.84,0,32.49-3.69,43.76-7.59c4.62-1.6,9.3-3.22,14.68-4.61c1.63-0.42,2.85-1.8,2.97-3.48
					c0.2-2.72,0.3-5.47,0.3-8.25c0-2.24-0.07-4.46-0.19-6.67c-0.1-1.74-1.39-3.21-3.1-3.55c-8.34-1.65-14.86-3.9-21.26-6.12
					C195.64,104.76,184.99,101.07,163.15,101.07z"/>
				<path class="st0" d="M119.9,58.37c-11.28-3.9-21.93-7.59-43.77-7.59s-32.49,3.69-43.77,7.59c-0.02,0.01-0.05,0.02-0.07,0.03
					c-5.07,1.75-9.38,5.22-12.07,9.86c-2.65,4.57-4.99,9.34-6.99,14.28c-0.86,2.14,0.3,4.54,2.51,5.2
					c3.51,1.06,6.78,2.19,10.02,3.31c11.28,3.9,21.93,7.59,43.77,7.59s32.49-3.69,43.77-7.59c12.24-4.23,24.89-8.61,49.86-8.61
					s37.62,4.38,49.86,8.61c2.51,0.87,4.99,1.72,7.56,2.53c3.08,0.97,5.94-1.97,4.9-5.03c-3.03-8.91-7.14-17.33-12.17-25.09
					c-0.94-1.45-2.73-2.07-4.38-1.59c-9.64,2.84-21.22,5.1-39.16,5.1C144.79,66.98,132.14,62.6,119.9,58.37z"/>
				<path class="st0" d="M119.38,209.24c-12.23,4.23-24.89,8.61-49.86,8.61c-0.74,0-1.47,0-2.18-0.01
					c-4.09-0.04-5.48,5.47-1.87,7.37c15.76,8.31,33.71,13.02,52.76,13.02c28.12,0,53.85-10.25,73.65-27.22
					c2.45-2.1,1.39-6.1-1.76-6.79c-7.03-1.54-15.44-2.57-26.97-2.57C141.31,201.65,130.66,205.34,119.38,209.24z"/>
			</g>
		</g>
	</g>
	<g>
		<g>
			<path class="st0" d="M274.71,52.86h42.54c10.77,0,19.21,2.82,25.34,8.47c6.13,5.64,9.19,13.32,9.19,23.04
				c0,9.71-3.06,17.39-9.19,23.04c-6.13,5.64-14.57,8.47-25.34,8.47H296.9v30.46h-22.19V52.86z M296.9,97.1h18.9
				c4.38,0,7.77-1.09,10.17-3.28c2.41-2.19,3.61-5.34,3.61-9.45c0-4.11-1.23-7.26-3.68-9.45c-2.45-2.19-5.82-3.28-10.11-3.28h-18.9
				V97.1z"/>
			<path class="st0" d="M394.31,147.91c-10.77,0-19.39-3.24-25.86-9.72c-6.48-6.48-9.71-15.05-9.71-25.73
				c0-10.76,3.24-19.38,9.71-25.86c6.39-6.39,15.01-9.58,25.86-9.58c10.85,0,19.47,3.2,25.86,9.58c6.39,6.39,9.58,15.01,9.58,25.86
				c0,10.77-3.2,19.34-9.58,25.73C413.69,144.67,405.07,147.91,394.31,147.91z M394.31,131.5c4.73,0,8.36-1.62,10.9-4.86
				c2.54-3.24,3.81-7.96,3.81-14.18c0-6.21-1.27-10.94-3.81-14.18c-2.54-3.24-6.17-4.86-10.9-4.86c-4.81,0-8.49,1.62-11.03,4.86
				c-2.54,3.24-3.81,7.97-3.81,14.18c0,6.22,1.27,10.94,3.81,14.18C385.82,129.88,389.5,131.5,394.31,131.5z"/>
			<path class="st0" d="M464.54,146.34h-20.48V52.86h20.48V146.34z"/>
			<path class="st0" d="M546.99,146.34h-20.61c-1.05-2.01-1.62-4.55-1.71-7.61c-4.55,6.13-11.77,9.19-21.66,9.19
				c-7.44,0-13.41-1.84-17.92-5.51c-4.51-3.68-6.76-8.75-6.76-15.23c0-12.6,8.84-19.65,26.52-21.14l10.63-0.92
				c5.86-0.61,8.8-2.84,8.8-6.7c0-4.55-3.46-6.83-10.37-6.83c-4.2,0-7.15,0.64-8.86,1.9c-1.71,1.27-2.74,3.61-3.09,7.02h-20.35
				c1.22-15.66,12.03-23.5,32.43-23.5c20.13,0,30.2,6.96,30.2,20.87v35.97C544.23,139.55,545.15,143.71,546.99,146.34z
				 M509.18,134.13c4.64,0,8.31-1.2,11.03-3.61c2.71-2.41,4.07-6.02,4.07-10.83v-4.99c-1.23,1.31-3.5,2.19-6.83,2.63l-8.4,0.92
				c-6.56,0.7-9.85,3.41-9.85,8.14c0,2.36,0.87,4.25,2.63,5.64C503.58,133.43,506.03,134.13,509.18,134.13z"/>
			<path class="st0" d="M597.7,77.54c0.35,0,1.84,0.09,4.46,0.26v18.64h-5.25c-11.99,0-17.99,6.13-17.99,18.38v31.51h-20.48V78.59
				h19.96v12.6C581.55,82.1,587.98,77.54,597.7,77.54z"/>
		</g>
		<g>
			<g>
				<path class="st0" d="M294.17,168.24v4.47h-14.42v6.21h13.06v4.29h-13.06v6.88h14.35v4.48h-19.34v-26.33H294.17z"/>
				<path class="st0" d="M326.53,181.96v12.61h-4.66V182.7c0-2.42-1.1-3.62-3.29-3.62c-1.18,0-2.14,0.43-2.87,1.28
					c-0.73,0.85-1.09,2.09-1.09,3.72v10.5H310V182.7c0-2.42-1.11-3.62-3.33-3.62c-1.16,0-2.1,0.43-2.83,1.28
					c-0.73,0.85-1.09,2.09-1.09,3.72v10.5h-4.66v-19.08h4.51v2.74c1.31-2.12,3.12-3.18,5.44-3.18c2.91,0,4.88,1.18,5.92,3.55
					c1.43-2.37,3.4-3.55,5.92-3.55c2.1,0,3.73,0.62,4.9,1.85C325.95,178.13,326.53,179.82,326.53,181.96"/>
				<path class="st0" d="M341.99,175.05c2.61,0,4.7,0.9,6.25,2.7c1.53,1.82,2.29,4.25,2.29,7.29c0,3.01-0.76,5.42-2.29,7.25
					c-1.55,1.83-3.64,2.74-6.25,2.74c-2.59,0-4.56-0.97-5.92-2.92v9.73h-4.66v-26.33h4.48v2.74
					C337.27,176.11,339.3,175.05,341.99,175.05z M337.29,189.58c0.84,1.06,2.03,1.59,3.59,1.59c1.53,0,2.74-0.56,3.62-1.66
					c0.86-1.09,1.29-2.63,1.29-4.62c0-1.95-0.43-3.43-1.28-4.46c-0.85-1.02-2.07-1.53-3.64-1.53c-1.55,0-2.76,0.53-3.62,1.59
					c-0.86,1.06-1.29,2.58-1.29,4.55C335.96,187.03,336.41,188.55,337.29,189.58z"/>
				<path class="st0" d="M364.77,175.19c0.42,0,0.8,0.02,1.15,0.07v4.29h-1.18c-1.78,0-3.14,0.45-4.09,1.35
					c-0.95,0.9-1.42,2.23-1.42,3.98v9.69h-4.66v-19.08h4.51v3.4C360.14,176.43,362.04,175.19,364.77,175.19z"/>
				<path class="st0" d="M386.71,185.37v1.11h-14.28c0.17,1.63,0.68,2.85,1.53,3.68c0.85,0.83,1.99,1.24,3.42,1.24
					c2.12,0,3.57-0.91,4.36-2.74h4.48c-0.49,1.95-1.53,3.5-3.11,4.64c-1.58,1.15-3.5,1.72-5.77,1.72c-2.84,0-5.13-0.91-6.88-2.74
					c-1.75-1.82-2.63-4.24-2.63-7.25c0-3.01,0.86-5.42,2.59-7.25c1.75-1.82,4.03-2.74,6.84-2.74c2.89,0,5.18,0.95,6.88,2.85
					C385.86,179.79,386.71,182.28,386.71,185.37z M377.24,178.67c-2.74,0-4.33,1.52-4.77,4.55h9.58c-0.2-1.41-0.72-2.51-1.55-3.33
					C379.66,179.08,378.57,178.67,377.24,178.67z"/>
				<path class="st0" d="M398.28,195.09c-5.57,0-8.48-2.19-8.73-6.58h4.55c0.12,1.18,0.51,2.02,1.17,2.51
					c0.65,0.49,1.68,0.74,3.09,0.74c2.52,0,3.77-0.76,3.77-2.29c0-0.69-0.27-1.22-0.81-1.59c-0.54-0.37-1.52-0.68-2.92-0.92
					l-2.18-0.37c-4.17-0.69-6.25-2.61-6.25-5.77c0-1.8,0.69-3.21,2.07-4.24c1.38-1.02,3.33-1.53,5.84-1.53
					c5.45,0,8.26,2.16,8.43,6.47h-4.4c-0.05-1.13-0.41-1.94-1.07-2.42c-0.67-0.48-1.65-0.72-2.96-0.72c-2.22,0-3.33,0.74-3.33,2.22
					c0,0.64,0.25,1.14,0.74,1.5c0.49,0.36,1.31,0.64,2.44,0.83l2.4,0.37c2.32,0.42,4,1.09,5.05,2c1.05,0.91,1.57,2.18,1.57,3.81
					c0,1.92-0.74,3.4-2.22,4.44C403.06,194.57,400.97,195.09,398.28,195.09z"/>
				<path class="st0" d="M427.98,194.57h-4.66c-0.22-0.39-0.39-1.17-0.52-2.33c-1.28,1.85-3.33,2.77-6.14,2.77
					c-2.1,0-3.77-0.51-5.01-1.52c-1.25-1.01-1.87-2.42-1.87-4.22c0-3.48,2.44-5.46,7.32-5.96l2.88-0.26
					c0.96-0.12,1.65-0.35,2.07-0.68c0.42-0.33,0.63-0.83,0.63-1.5c0-0.81-0.27-1.41-0.8-1.79c-0.53-0.38-1.42-0.57-2.68-0.57
					c-1.36,0-2.33,0.23-2.92,0.68c-0.59,0.46-0.94,1.24-1.04,2.35h-4.59c0.27-4.34,3.13-6.51,8.58-6.51c5.3,0,7.95,1.91,7.95,5.73
					v10.17C427.21,192.63,427.47,193.83,427.98,194.57z M417.78,191.69c1.45,0,2.64-0.4,3.55-1.2c0.91-0.8,1.37-1.95,1.37-3.46
					v-1.74c-0.44,0.39-1.17,0.65-2.18,0.78l-2.52,0.3c-1.23,0.15-2.11,0.44-2.64,0.87c-0.53,0.43-0.8,1.05-0.8,1.87
					c0,0.81,0.28,1.45,0.83,1.91S416.74,191.69,417.78,191.69z"/>
				<path class="st0" d="M441.22,168.24h11.58c2.93,0,5.22,0.77,6.86,2.31c1.64,1.54,2.46,3.63,2.46,6.27
					c0,2.61-0.82,4.69-2.46,6.23c-1.64,1.54-3.93,2.31-6.86,2.31h-6.58v9.21h-4.99V168.24z M446.22,181.08h6.36
					c1.45,0,2.57-0.36,3.35-1.09s1.16-1.78,1.16-3.16c0-1.38-0.39-2.44-1.16-3.18c-0.78-0.74-1.89-1.11-3.35-1.11h-6.36V181.08z"/>
				<path class="st0" d="M483.02,185.37v1.11h-14.28c0.17,1.63,0.68,2.85,1.53,3.68c0.85,0.83,1.99,1.24,3.42,1.24
					c2.12,0,3.57-0.91,4.36-2.74h4.48c-0.49,1.95-1.53,3.5-3.11,4.64c-1.58,1.15-3.5,1.72-5.77,1.72c-2.84,0-5.13-0.91-6.88-2.74
					c-1.75-1.82-2.63-4.24-2.63-7.25c0-3.01,0.86-5.42,2.59-7.25c1.75-1.82,4.03-2.74,6.84-2.74c2.89,0,5.18,0.95,6.88,2.85
					C482.17,179.79,483.02,182.28,483.02,185.37z M473.55,178.67c-2.74,0-4.33,1.52-4.77,4.55h9.58c-0.2-1.41-0.72-2.51-1.55-3.33
					C475.97,179.08,474.88,178.67,473.55,178.67z"/>
				<path class="st0" d="M494.6,195.09c-5.57,0-8.48-2.19-8.73-6.58h4.55c0.12,1.18,0.51,2.02,1.17,2.51
					c0.65,0.49,1.68,0.74,3.09,0.74c2.52,0,3.77-0.76,3.77-2.29c0-0.69-0.27-1.22-0.81-1.59c-0.54-0.37-1.52-0.68-2.92-0.92
					l-2.18-0.37c-4.17-0.69-6.25-2.61-6.25-5.77c0-1.8,0.69-3.21,2.07-4.24c1.38-1.02,3.33-1.53,5.84-1.53
					c5.45,0,8.26,2.16,8.43,6.47h-4.4c-0.05-1.13-0.41-1.94-1.07-2.42c-0.67-0.48-1.65-0.72-2.96-0.72c-2.22,0-3.33,0.74-3.33,2.22
					c0,0.64,0.25,1.14,0.74,1.5c0.49,0.36,1.31,0.64,2.44,0.83l2.4,0.37c2.32,0.42,4,1.09,5.05,2c1.05,0.91,1.57,2.18,1.57,3.81
					c0,1.92-0.74,3.4-2.22,4.44C499.37,194.57,497.28,195.09,494.6,195.09z"/>
				<path class="st0" d="M520.41,178.15v-2.66h4.51v26.33h-4.66v-9.73c-1.36,1.95-3.32,2.92-5.88,2.92c-2.64,0-4.72-0.91-6.25-2.74
					c-1.55-1.82-2.33-4.24-2.33-7.25c0-3.06,0.78-5.49,2.33-7.29c1.5-1.8,3.59-2.7,6.25-2.7C517,175.05,519.01,176.08,520.41,178.15
					z M510.57,185.18c0,1.97,0.43,3.46,1.29,4.48c0.86,1.01,2.06,1.52,3.59,1.52c1.53,0,2.74-0.53,3.62-1.59
					c0.86-1.06,1.29-2.58,1.29-4.55c0-1.97-0.43-3.49-1.29-4.55c-0.86-1.06-2.07-1.59-3.62-1.59c-1.5,0-2.69,0.55-3.57,1.66
					C511.01,181.67,510.57,183.21,510.57,185.18z"/>
				<path class="st0" d="M542.31,186.18v-10.69h4.66v19.08h-4.51v-2.77c-1.46,2.14-3.45,3.22-5.99,3.22c-2.05,0-3.67-0.6-4.86-1.79
					c-1.2-1.2-1.79-2.89-1.79-5.09v-12.65h4.66v11.87c0,2.42,1.2,3.62,3.59,3.62c1.18,0,2.19-0.43,3.01-1.28
					C541.89,188.86,542.31,187.68,542.31,186.18z"/>
				<path class="st0" d="M569.86,185.37v1.11h-14.28c0.17,1.63,0.68,2.85,1.53,3.68c0.85,0.83,1.99,1.24,3.42,1.24
					c2.12,0,3.57-0.91,4.36-2.74h4.48c-0.49,1.95-1.53,3.5-3.11,4.64c-1.58,1.15-3.5,1.72-5.77,1.72c-2.84,0-5.13-0.91-6.88-2.74
					c-1.75-1.82-2.63-4.24-2.63-7.25c0-3.01,0.86-5.42,2.59-7.25c1.75-1.82,4.03-2.74,6.84-2.74c2.89,0,5.18,0.95,6.88,2.85
					C569.01,179.79,569.86,182.28,569.86,185.37z M560.39,178.67c-2.74,0-4.33,1.52-4.77,4.55h9.58c-0.2-1.41-0.72-2.51-1.55-3.33
					C562.81,179.08,561.73,178.67,560.39,178.67z"/>
				<path class="st0" d="M584.18,175.19c0.42,0,0.8,0.02,1.15,0.07v4.29h-1.18c-1.78,0-3.14,0.45-4.09,1.35
					c-0.95,0.9-1.42,2.23-1.42,3.98v9.69h-4.66v-19.08h4.51v3.4C579.54,176.43,581.44,175.19,584.18,175.19z"/>
				<path class="st0" d="M605,194.57h-4.66c-0.22-0.39-0.39-1.17-0.52-2.33c-1.28,1.85-3.33,2.77-6.14,2.77
					c-2.1,0-3.77-0.51-5.01-1.52c-1.25-1.01-1.87-2.42-1.87-4.22c0-3.48,2.44-5.46,7.32-5.96l2.88-0.26
					c0.96-0.12,1.65-0.35,2.07-0.68c0.42-0.33,0.63-0.83,0.63-1.5c0-0.81-0.27-1.41-0.79-1.79c-0.53-0.38-1.42-0.57-2.68-0.57
					c-1.36,0-2.33,0.23-2.92,0.68c-0.59,0.46-0.94,1.24-1.04,2.35h-4.59c0.27-4.34,3.13-6.51,8.58-6.51c5.3,0,7.95,1.91,7.95,5.73
					v10.17C604.22,192.63,604.48,193.83,605,194.57z M594.79,191.69c1.45,0,2.64-0.4,3.55-1.2c0.91-0.8,1.37-1.95,1.37-3.46v-1.74
					c-0.44,0.39-1.17,0.65-2.18,0.78l-2.52,0.3c-1.23,0.15-2.11,0.44-2.64,0.87c-0.53,0.43-0.8,1.05-0.8,1.87
					c0,0.81,0.28,1.45,0.83,1.91C592.96,191.46,593.76,191.69,594.79,191.69z"/>
			</g>
		</g>
	</g>
</g>
</svg>
